<?xml version="1.0" encoding="UTF-8" standalone="no"?>
<!-- Created with Inkscape (http://www.inkscape.org/) -->

<svg
   width="40"
   height="40"
   viewBox="0 0 10.583334 10.583334"
   version="1.1"
   id="svg"
   inkscape:version="1.2.1 (9c6d41e410, 2022-07-14)"
   sodipodi:docname="600.svg"
   xmlns:inkscape="http://www.inkscape.org/namespaces/inkscape"
   xmlns:sodipodi="http://sodipodi.sourceforge.net/DTD/sodipodi-0.dtd"
   xmlns="http://www.w3.org/2000/svg"
   xmlns:svg="http://www.w3.org/2000/svg">
  <sodipodi:namedview
     id="namedview7"
     pagecolor="#505050"
     bordercolor="#ffffff"
     borderopacity="1"
     inkscape:pageshadow="0"
     inkscape:pageopacity="0"
     inkscape:pagecheckerboard="1"
     inkscape:document-units="px"
     showgrid="true"
     units="px"
     width="64px"
     inkscape:zoom="8.4158407"
     inkscape:cx="24.240003"
     inkscape:cy="12.654707"
     inkscape:window-width="1329"
     inkscape:window-height="1002"
     inkscape:window-x="2261"
     inkscape:window-y="38"
     inkscape:window-maximized="1"
     inkscape:current-layer="layer1"
     guidecolor="#55ffff"
     guideopacity="1"
     inkscape:showpageshadow="0"
     inkscape:deskcolor="#505050">
    <inkscape:grid
       type="xygrid"
       id="grid869"
       color="#ffffff"
       opacity="0.13333333"
       empcolor="#ffffff"
       empopacity="0.53333333"
       spacingx="1.0583334"
       spacingy="1.0583334"
       empspacing="4"
       originx="0"
       originy="0" />
    <sodipodi:guide
       position="0,10.583334"
       orientation="0,40"
       id="guide134"
       inkscape:locked="false" />
    <sodipodi:guide
       position="10.583334,10.583334"
       orientation="40,0"
       id="guide136"
       inkscape:locked="false" />
    <sodipodi:guide
       position="10.583334,0"
       orientation="0,-40"
       id="guide138"
       inkscape:locked="false" />
    <sodipodi:guide
       position="0,0"
       orientation="-40,0"
       id="guide140"
       inkscape:locked="false" />
  </sodipodi:namedview>
  <defs
     id="defs2" />
  <g
     inkscape:label="Layer 1"
     inkscape:groupmode="layer"
     id="layer1">
    <path
       id="rect2545"
       style="fill:#888888;fill-opacity:1;stroke:none;stroke-width:1.05833;stroke-linecap:round;stroke-linejoin:round;stroke-dasharray:none;stroke-opacity:1;paint-order:markers stroke fill"
       d="M 5.291667 1.0583334 A 2.1166668 2.1166668 0 0 0 3.1750002 3.1750002 C 2.002368 3.1750002 1.0583334 4.1190348 1.0583334 5.291667 C 1.0583334 6.4642992 2.002368 7.4083338 3.1750002 7.4083338 L 7.4083338 7.4083338 C 8.580966 7.4083338 9.5250006 6.4642992 9.5250006 5.291667 C 9.5250006 4.1190348 8.580966 3.1750002 7.4083338 3.1750002 A 2.1166668 2.1166668 0 0 0 5.291667 1.0583334 z " />
    <path
       id="path679"
       style="color:#000000;fill:#88aaff;fill-opacity:1;stroke-width:0.435702;stroke-linejoin:bevel;-inkscape-stroke:none"
       inkscape:transform-center-y="-0.5293408"
       d="M 2.9936601,6.3500004 2.9104811,6.4471164 3.11197,6.6834496 v 0.00103 0.5847631 L 2.7108007,6.8683836 2.6841938,6.5434578 2.5568425,6.5323514 l 0.016791,0.1988815 -0.070005,-0.069996 -0.082404,0.082652 0.059413,0.059406 -0.1823732,-0.01498 0.00982,0.1273358 0.3097246,0.024795 7.748e-4,7.747e-4 0.4135689,0.4135184 H 2.4648809 l -0.248503,-0.2110207 -0.097903,0.082394 0.1524082,0.1286272 h -0.098936 v 0.116746 h 0.084212 l -0.1394923,0.1182957 0.09687,0.08291 0.2366203,-0.2012061 h 0.00103 0.5845761 l -0.4009084,0.4008623 -0.3247071,0.026604 -0.011108,0.127594 0.1986474,-0.017047 -0.070005,0.069996 0.082662,0.082652 0.059413,-0.059664 -0.014982,0.182351 0.1273513,-0.00981 L 2.7071834,7.9653364 2.7077,7.9648198 3.1212689,7.5513014 v 0.5669412 l -0.2107884,0.248731 0.082404,0.097891 0.1283846,-0.152648 v 0.098924 H 3.23803 V 8.3271919 L 3.3563401,8.4666672 3.4395189,8.3695511 3.23803,8.1329596 V 8.1321849 7.5471635 l 0.4011695,0.4011206 0.026607,0.3249258 0.1273513,0.010848 -0.016791,-0.1986232 0.070005,0.069996 0.082404,-0.082652 -0.059413,-0.059406 0.1823732,0.014981 L 4.041919,7.9010174 3.7321944,7.8762218 3.7314194,7.8754469 3.3178506,7.4619285 H 3.8851193 L 4.1336223,7.6726912 4.2315253,7.5905552 4.0791171,7.461928 h 0.098936 V 7.3451825 H 4.0938412 L 4.2333335,7.2268868 4.1364638,7.1437182 3.8998435,7.3451825 H 3.8988102 3.3139758 L 3.7151454,6.9443202 4.0398525,6.9174582 4.0509602,6.7901225 3.8523128,6.8071694 3.9223173,6.7371735 3.8396552,6.6545215 3.7802418,6.7139276 3.7952243,6.5315766 3.667873,6.5416498 3.642816,6.8513366 3.6422994,6.8518532 3.2287305,7.2653716 V 6.6984304 L 3.4395189,6.4496994 3.3571151,6.3518084 3.2287305,6.5041981 V 6.4055322 H 3.1119702 v 0.083943 z m 0.1810817,1.057946 h 5.148e-4 v 5.148e-4 L 3.1749983,7.4087195 3.17474,7.4084612 Z" />
  </g>
</svg>
