<?xml version="1.0" encoding="UTF-8" standalone="no"?>
<!-- Created with Inkscape (http://www.inkscape.org/) -->

<svg
   width="40"
   height="40"
   viewBox="0 0 10.583334 10.583334"
   version="1.1"
   id="svg"
   inkscape:version="1.2.1 (9c6d41e410, 2022-07-14)"
   sodipodi:docname="602.svg"
   xmlns:inkscape="http://www.inkscape.org/namespaces/inkscape"
   xmlns:sodipodi="http://sodipodi.sourceforge.net/DTD/sodipodi-0.dtd"
   xmlns="http://www.w3.org/2000/svg"
   xmlns:svg="http://www.w3.org/2000/svg">
  <sodipodi:namedview
     id="namedview7"
     pagecolor="#505050"
     bordercolor="#ffffff"
     borderopacity="1"
     inkscape:pageshadow="0"
     inkscape:pageopacity="0"
     inkscape:pagecheckerboard="1"
     inkscape:document-units="px"
     showgrid="true"
     units="px"
     width="64px"
     inkscape:zoom="8.4158407"
     inkscape:cx="24.240003"
     inkscape:cy="12.654707"
     inkscape:window-width="1329"
     inkscape:window-height="1002"
     inkscape:window-x="2261"
     inkscape:window-y="38"
     inkscape:window-maximized="1"
     inkscape:current-layer="layer1"
     guidecolor="#55ffff"
     guideopacity="1"
     inkscape:showpageshadow="0"
     inkscape:deskcolor="#505050"
     showguides="false">
    <inkscape:grid
       type="xygrid"
       id="grid869"
       color="#ffffff"
       opacity="0.13333333"
       empcolor="#ffffff"
       empopacity="0.53333333"
       spacingx="1.0583334"
       spacingy="1.0583334"
       empspacing="4"
       originx="0"
       originy="0" />
    <sodipodi:guide
       position="0,10.583334"
       orientation="0,40"
       id="guide134"
       inkscape:locked="false" />
    <sodipodi:guide
       position="10.583334,10.583334"
       orientation="40,0"
       id="guide136"
       inkscape:locked="false" />
    <sodipodi:guide
       position="10.583334,0"
       orientation="0,-40"
       id="guide138"
       inkscape:locked="false" />
    <sodipodi:guide
       position="0,0"
       orientation="-40,0"
       id="guide140"
       inkscape:locked="false" />
  </sodipodi:namedview>
  <defs
     id="defs2" />
  <g
     inkscape:label="Layer 1"
     inkscape:groupmode="layer"
     id="layer1">
    <path
       id="rect2545"
       style="fill:#888888;fill-opacity:1;stroke:none;stroke-width:1.05833;stroke-linecap:round;stroke-linejoin:round;stroke-dasharray:none;stroke-opacity:1;paint-order:markers stroke fill"
       d="M 5.291667 1.0583334 A 2.1166668 2.1166668 0 0 0 3.1750002 3.1750002 C 2.002368 3.1750002 1.0583334 4.1190348 1.0583334 5.291667 C 1.0583334 6.4642992 2.002368 7.4083338 3.1750002 7.4083338 L 7.4083338 7.4083338 C 8.580966 7.4083338 9.5250006 6.4642992 9.5250006 5.291667 C 9.5250006 4.1190348 8.580966 3.1750002 7.4083338 3.1750002 A 2.1166668 2.1166668 0 0 0 5.291667 1.0583334 z " />
    <path
       id="path679"
       style="color:#000000;fill:#88aaff;fill-opacity:1;stroke-width:0.435702;stroke-linejoin:bevel;-inkscape-stroke:none"
       inkscape:transform-center-y="-0.5293408"
       d="m 2.4644934,6.3500004 -0.083179,0.097116 0.2014889,0.2363332 v 0.00103 0.5847631 L 2.181634,6.8683836 2.1550271,6.5434578 2.0276758,6.5323514 l 0.016791,0.1988815 -0.070005,-0.069996 -0.082404,0.082652 0.059413,0.059406 -0.1823732,-0.01498 0.00982,0.1273358 0.3097246,0.024795 7.748e-4,7.747e-4 0.4135689,0.4135184 H 1.9357142 l -0.248503,-0.2110207 -0.097903,0.082394 0.1524082,0.1286272 h -0.098936 v 0.116746 h 0.084212 l -0.1394923,0.1182957 0.09687,0.08291 0.2366203,-0.2012061 h 0.00103 0.5845761 l -0.4009084,0.4008623 -0.3247071,0.026604 -0.011108,0.127594 0.1986474,-0.017047 -0.070005,0.069996 0.082662,0.082652 0.059413,-0.059664 -0.014982,0.182351 0.1273513,-0.00981 0.025057,-0.3096868 5.166e-4,-5.166e-4 0.4135689,-0.4135184 v 0.5669412 l -0.2107884,0.248731 0.082404,0.097891 0.1283846,-0.152648 v 0.098924 H 2.7088633 V 8.3271919 L 2.8271734,8.4666672 2.9103522,8.3695511 2.7088633,8.1329596 V 8.1321849 7.5471635 l 0.4011695,0.4011206 0.026607,0.3249258 0.1273513,0.010848 -0.016791,-0.1986232 0.070005,0.069996 0.082404,-0.082652 -0.059413,-0.059406 0.1823732,0.014981 L 3.5127523,7.9010174 3.2030277,7.8762218 3.2022527,7.8754469 2.7886839,7.4619285 H 3.3559526 L 3.6044556,7.6726912 3.7023586,7.5905552 3.5499504,7.461928 h 0.098936 V 7.3451825 H 3.5646745 L 3.7041668,7.2268868 3.6072971,7.1437182 3.3706768,7.3451825 h -0.00103 -0.5848344 l 0.4011696,-0.4008623 0.3247071,-0.026862 0.011108,-0.1273357 -0.1986474,0.017047 0.070004,-0.069996 -0.082662,-0.082652 -0.059413,0.059406 0.014982,-0.182351 -0.1273513,0.010073 -0.025057,0.3096868 -5.166e-4,5.166e-4 -0.4135689,0.4135184 V 6.6984304 L 2.9103522,6.4496994 2.8279484,6.3518084 2.6995638,6.5041981 V 6.4055322 H 2.5828035 v 0.083943 z m 0.1810817,1.057946 h 5.148e-4 v 5.148e-4 l -2.583e-4,2.583e-4 -2.583e-4,-2.583e-4 z" />
    <path
       id="path6505"
       style="color:#000000;fill:#88aaff;fill-opacity:1;stroke-width:0.435702;stroke-linejoin:bevel;-inkscape-stroke:none"
       inkscape:transform-center-y="-0.5293408"
       d="m 5.1103269,6.3500004 -0.083179,0.097116 0.2014889,0.2363332 v 0.00103 0.5847631 L 4.8274675,6.8683836 4.8008606,6.5434578 4.6735093,6.5323514 l 0.016791,0.1988815 -0.070005,-0.069996 -0.082404,0.082652 0.059413,0.059406 -0.1823732,-0.01498 0.00982,0.1273358 0.3097246,0.024795 7.748e-4,7.747e-4 0.4135689,0.4135184 H 4.5815477 l -0.248503,-0.2110207 -0.097903,0.082394 0.1524082,0.1286272 h -0.098936 v 0.116746 h 0.084212 l -0.1394923,0.1182957 0.09687,0.08291 0.2366203,-0.2012061 h 0.00103 0.5845761 l -0.4009084,0.4008623 -0.3247071,0.026604 -0.011108,0.127594 0.1986474,-0.017047 -0.070005,0.069996 0.082662,0.082652 0.059413,-0.059664 -0.014982,0.182351 0.1273513,-0.00981 0.025057,-0.3096868 5.166e-4,-5.166e-4 0.4135689,-0.4135184 v 0.5669412 l -0.2107884,0.248731 0.082404,0.097891 0.1283846,-0.152648 v 0.098924 H 5.3546968 V 8.3271919 L 5.4730069,8.4666672 5.5561857,8.3695511 5.3546968,8.1329596 V 8.1321849 7.5471635 l 0.4011695,0.4011206 0.026607,0.3249258 0.1273513,0.010848 -0.016791,-0.1986232 0.070005,0.069996 0.082404,-0.082652 -0.059413,-0.059406 0.1823732,0.014981 L 6.1585858,7.9010174 5.8488612,7.8762218 5.8480862,7.8754469 5.4345174,7.4619285 H 6.0017861 L 6.2502891,7.6726912 6.3481921,7.5905552 6.1957839,7.461928 h 0.098936 V 7.3451825 H 6.210508 L 6.3500003,7.2268868 6.2531306,7.1437182 6.0165103,7.3451825 H 6.015477 5.4306426 L 5.8318122,6.9443202 6.1565193,6.9174582 6.167627,6.7901225 5.9689796,6.8071694 6.0389841,6.7371735 5.956322,6.6545215 5.8969086,6.7139276 5.9118911,6.5315766 5.7845398,6.5416498 5.7594828,6.8513366 5.7589662,6.8518532 5.3453973,7.2653716 V 6.6984304 L 5.5561857,6.4496994 5.4737819,6.3518084 5.3453973,6.5041981 V 6.4055322 H 5.228637 v 0.083943 z m 0.1810817,1.057946 h 5.148e-4 v 5.148e-4 l -2.583e-4,2.583e-4 -2.583e-4,-2.583e-4 z" />
    <path
       id="path7261"
       style="color:#000000;fill:#88aaff;fill-opacity:1;stroke-width:0.435702;stroke-linejoin:bevel;-inkscape-stroke:none"
       inkscape:transform-center-y="-0.5293408"
       d="m 7.7561604,6.3500004 -0.083179,0.097116 0.2014889,0.2363332 v 0.00103 0.5847631 L 7.473301,6.8683836 7.4466941,6.5434578 7.3193428,6.5323514 l 0.016791,0.1988815 -0.070005,-0.069996 -0.082404,0.082652 0.059413,0.059406 -0.1823732,-0.01498 0.00982,0.1273358 0.3097246,0.024795 7.748e-4,7.747e-4 0.4135689,0.4135184 H 7.2273812 l -0.248503,-0.2110207 -0.097903,0.082394 0.1524082,0.1286272 h -0.098936 v 0.116746 h 0.084212 l -0.1394923,0.1182957 0.09687,0.08291 0.2366203,-0.2012061 h 0.00103 0.5845761 L 7.3973551,7.8723472 7.072648,7.8989512 7.06154,8.0265452 l 0.1986474,-0.017047 -0.070005,0.069996 0.082662,0.082652 0.059413,-0.059664 -0.014982,0.182351 0.1273513,-0.00981 0.025057,-0.3096868 5.166e-4,-5.166e-4 0.4135689,-0.4135184 v 0.5669412 l -0.2107884,0.248731 0.082404,0.097891 0.1283846,-0.152648 v 0.098924 H 8.0005303 V 8.3271919 L 8.1188404,8.4666672 8.2020192,8.3695511 8.0005303,8.1329596 V 8.1321849 7.5471635 l 0.4011695,0.4011206 0.026607,0.3249258 0.1273513,0.010848 -0.016791,-0.1986232 0.070005,0.069996 0.082404,-0.082652 -0.059413,-0.059406 0.1823732,0.014981 L 8.8044193,7.9010174 8.4946947,7.8762218 8.4939197,7.8754469 8.0803509,7.4619285 H 8.6476196 L 8.8961226,7.6726912 8.9940256,7.5905552 8.8416174,7.461928 h 0.098936 V 7.3451825 H 8.8563415 L 8.9958338,7.2268868 8.8989641,7.1437182 8.6623438,7.3451825 h -0.00103 -0.5848344 l 0.4011696,-0.4008623 0.3247071,-0.026862 0.011108,-0.1273357 -0.1986474,0.017047 0.070005,-0.069996 -0.082662,-0.082652 -0.059413,0.059406 0.014983,-0.182351 -0.1273513,0.010073 -0.025057,0.3096868 -5.166e-4,5.166e-4 -0.4135689,0.4135184 V 6.6984304 L 8.2020192,6.4496994 8.1196154,6.3518084 7.9912308,6.5041981 V 6.4055322 H 7.8744705 v 0.083943 z m 0.1810817,1.057946 h 5.148e-4 v 5.148e-4 l -2.583e-4,2.583e-4 -2.583e-4,-2.583e-4 z" />
  </g>
</svg>
