<?xml version="1.0" encoding="UTF-8" standalone="no"?>
<!-- Created with Inkscape (http://www.inkscape.org/) -->

<svg
   width="40"
   height="40"
   viewBox="0 0 10.583334 10.583334"
   version="1.1"
   id="svg"
   inkscape:version="1.2.1 (9c6d41e410, 2022-07-14)"
   sodipodi:docname="701-"
   xmlns:inkscape="http://www.inkscape.org/namespaces/inkscape"
   xmlns:sodipodi="http://sodipodi.sourceforge.net/DTD/sodipodi-0.dtd"
   xmlns="http://www.w3.org/2000/svg"
   xmlns:svg="http://www.w3.org/2000/svg">
  <sodipodi:namedview
     id="namedview7"
     pagecolor="#505050"
     bordercolor="#ffffff"
     borderopacity="1"
     inkscape:pageshadow="0"
     inkscape:pageopacity="0"
     inkscape:pagecheckerboard="1"
     inkscape:document-units="px"
     showgrid="true"
     units="px"
     width="64px"
     inkscape:zoom="11.901796"
     inkscape:cx="17.350323"
     inkscape:cy="24.492102"
     inkscape:window-width="1660"
     inkscape:window-height="1002"
     inkscape:window-x="1930"
     inkscape:window-y="38"
     inkscape:window-maximized="1"
     inkscape:current-layer="layer1"
     guidecolor="#55ffff"
     guideopacity="1"
     inkscape:showpageshadow="0"
     inkscape:deskcolor="#505050"
     showguides="false">
    <inkscape:grid
       type="xygrid"
       id="grid869"
       color="#ffffff"
       opacity="0.13333333"
       empcolor="#ffffff"
       empopacity="0.53333333"
       spacingx="1.0583334"
       spacingy="1.0583334"
       empspacing="4"
       originx="0"
       originy="0" />
    <sodipodi:guide
       position="0,10.583334"
       orientation="0,40"
       id="guide134"
       inkscape:locked="false" />
    <sodipodi:guide
       position="10.583334,10.583334"
       orientation="40,0"
       id="guide136"
       inkscape:locked="false" />
    <sodipodi:guide
       position="10.583334,0"
       orientation="0,-40"
       id="guide138"
       inkscape:locked="false" />
    <sodipodi:guide
       position="0,0"
       orientation="-40,0"
       id="guide140"
       inkscape:locked="false" />
  </sodipodi:namedview>
  <defs
     id="defs2">
    <inkscape:path-effect
       effect="spiro"
       id="path-effect15567"
       is_visible="true"
       lpeversion="1" />
  </defs>
  <g
     inkscape:label="Layer 1"
     inkscape:groupmode="layer"
     id="layer1">
    <path
       id="path15565"
       style="color:#000000;fill:#8888ff;stroke-width:0.94488;stroke-linecap:round;fill-opacity:1"
       d="m 8.0926187,1.0583334 c -0.039556,5.422e-4 -0.07909,0.00236 -0.1185145,0.00465 C 7.675435,1.0803084 7.4010952,1.1453284 7.160346,1.2293824 6.9201818,1.3132325 6.7123147,1.415552 6.5167817,1.5172201 6.3148812,1.6221991 6.1250905,1.726122 5.9152487,1.8040244 5.7067998,1.8814094 5.4723397,1.9337235 5.2441228,1.9321819 5.0278259,1.9307207 4.8061742,1.8809641 4.6081379,1.8081585 4.4088987,1.7349109 4.2260582,1.6381555 4.0341667,1.539441 3.8392976,1.4391949 3.6338647,1.3371697 3.3954255,1.2536703 3.1563901,1.1699621 2.8845267,1.1060364 2.5871803,1.0888225 2.2762319,1.0708212 1.957396,1.1071587 1.6866036,1.1926921 1.4158111,1.2782261 1.1996468,1.4099862 1.072668,1.5663128 A 0.1689972,0.09245698 0 0 0 1.15742,1.6877524 0.1689972,0.09245698 0 0 0 1.3820473,1.6417604 c 0.097289,-0.1197727 0.2665864,-0.2238545 0.4740603,-0.2893881 0.2074742,-0.065534 0.4549351,-0.094407 0.6931755,-0.080615 0.2293914,0.01328 0.4571577,0.06546 0.6642355,0.1379761 0.207674,0.072726 0.4001852,0.1663212 0.5911973,0.2645833 0.188254,0.096843 0.3800725,0.2008274 0.6139357,0.2868042 C 4.6537171,2.0475399 4.9338307,2.1146034 5.2392995,2.116667 5.5616191,2.118847 5.8575942,2.048736 6.1047351,1.9569868 6.350483,1.8657548 6.5538662,1.7535918 6.7510557,1.6510623 6.9418584,1.5518533 7.1331278,1.4594922 7.3422529,1.386479 7.5507935,1.31367 7.7799686,1.2603716 8.0113118,1.2469526 c 0.2426678,-0.014076 0.4949319,0.015413 0.7062672,0.082165 0.2113358,0.066753 0.3846533,0.1725428 0.4837072,0.2945557 a 0.1689972,0.09245698 0 0 0 0.2246271,0.046509 0.1689972,0.09245698 0 0 0 0.084752,-0.1214396 C 9.3819146,1.39016 9.1617569,1.2561975 8.8870828,1.1694377 8.6467421,1.093523 8.3695122,1.0545381 8.0926187,1.0583334 Z m 0,0.7937501 c -0.039556,5.42e-4 -0.07909,0.00236 -0.1185145,0.00465 C 7.675435,1.8740586 7.4010952,1.939078 7.160346,2.0231325 6.9201818,2.1069826 6.7123147,2.2093021 6.5167817,2.3109702 6.3148812,2.4159492 6.1250905,2.5198722 5.9152487,2.5977744 5.7067998,2.6751594 5.4723397,2.7274736 5.2441228,2.725932 5.0278259,2.7244708 4.8061742,2.6747143 4.6081379,2.6019085 4.4088987,2.5286609 4.2260582,2.4319056 4.0341667,2.3331911 3.8392976,2.232945 3.6338647,2.1309198 3.3954255,2.0474204 3.1563901,1.9637122 2.8845267,1.8997864 2.5871803,1.8825725 2.2762319,1.8645714 1.957396,1.9009088 1.6866036,1.9864422 1.5220552,2.0384172 1.3779173,2.1077611 1.2614652,2.1890138 c 0.1182282,0.016482 0.2336698,0.038092 0.3458986,0.064596 0.073706,-0.041894 0.1573158,-0.078608 0.2487438,-0.107487 0.2074742,-0.065534 0.4549351,-0.094407 0.6931755,-0.080615 0.2293914,0.01328 0.4571577,0.06546 0.6642355,0.1379761 0.207674,0.072726 0.4001852,0.1663213 0.5911973,0.2645834 0.188254,0.096843 0.3800725,0.2008274 0.6139357,0.2868042 0.2350655,0.086419 0.5151791,0.1534825 0.8206479,0.1555461 0.3223196,0.00218 0.6182947,-0.067931 0.8654356,-0.1596802 C 6.350483,2.6595054 6.5538662,2.5473424 6.7510557,2.4448129 6.9418584,2.3456039 7.1331278,2.2532427 7.3422529,2.1802295 7.5507935,2.1074205 7.7799686,2.0541221 8.0113118,2.0407031 c 0.2426678,-0.014076 0.4949319,0.015413 0.7062672,0.082166 0.2113358,0.066753 0.3846533,0.1725428 0.4837072,0.2945557 a 0.1689972,0.09245698 0 0 0 0.2246271,0.046509 0.1689972,0.09245698 0 0 0 0.084752,-0.1214396 C 9.3819146,2.1839102 9.1617569,2.0499476 8.8870828,1.9631878 8.6467421,1.887273 8.3695122,1.8482882 8.0926187,1.8520835 Z m 0,0.79375 c -0.039556,5.422e-4 -0.07909,0.00236 -0.1185145,0.00465 C 7.675435,2.6678085 7.4010952,2.7328285 7.160346,2.8168825 6.9201818,2.9007326 6.7123147,3.0030521 6.5167817,3.1047202 6.3148812,3.2096992 6.1250905,3.3136221 5.9152487,3.3915245 5.7067998,3.4689095 5.4723397,3.5212236 5.2441228,3.519682 5.0278259,3.5182208 4.8061742,3.4684642 4.6081379,3.3956586 4.4088987,3.322411 4.2260582,3.2256556 4.0341667,3.1269411 3.8392976,3.026695 3.6338647,2.9246698 3.3954255,2.8411704 3.1698427,2.7621732 2.9146744,2.7015832 2.6367912,2.6804567 c 0.1193398,0.07539 0.2321427,0.1568393 0.336252,0.2449463 0.082468,0.020495 0.1628212,0.044637 0.2404754,0.07183 0.207674,0.072726 0.4001852,0.1663212 0.5911973,0.2645833 0.188254,0.096843 0.3800725,0.2008274 0.6139357,0.2868042 0.2350655,0.086419 0.5151791,0.1534821 0.8206479,0.1555461 0.3223196,0.00218 0.6182947,-0.067931 0.8654356,-0.1596802 C 6.350483,3.4532544 6.5538662,3.3410914 6.7510557,3.2385619 6.9418584,3.1393529 7.1331278,3.0469918 7.3422529,2.9739786 7.5507935,2.9011696 7.7799686,2.8478712 8.0113118,2.8344522 8.2539796,2.8203762 8.5062437,2.8498652 8.717579,2.9166182 8.9289148,2.9833712 9.1022323,3.089161 9.2012862,3.2111739 a 0.1689972,0.09245698 0 0 0 0.2246271,0.046509 0.1689972,0.09245698 0 0 0 0.084752,-0.1214396 C 9.3819146,2.9776601 9.1617569,2.8436976 8.8870828,2.7569378 8.6467421,2.6810231 8.3695122,2.6420382 8.0926187,2.6458335 Z M 1.0671555,3.1672487 A 0.1689972,0.09245698 0 0 0 1.15742,3.2752525 0.1689972,0.09245698 0 0 0 1.3813584,3.2297775 C 1.2803779,3.20273 1.1752035,3.1819134 1.0671555,3.1672487 Z m 7.0254632,0.2723349 c -0.039556,5.42e-4 -0.07909,0.00236 -0.1185145,0.00465 C 7.675435,3.4615586 7.4010952,3.5265786 7.160346,3.6106326 6.9201818,3.6944827 6.7123147,3.7968022 6.5167817,3.8984703 6.3148812,4.0034493 6.1250905,4.1073723 5.9152487,4.1852745 5.7067998,4.2626595 5.4723397,4.3149737 5.2441228,4.3134321 5.0278259,4.3119709 4.8061742,4.2622144 4.6081379,4.1894086 4.4088987,4.116161 4.2260582,4.0194057 4.0341667,3.9206912 3.9012236,3.8523016 3.7630644,3.7832683 3.6131624,3.7196698 c 0.051406,0.099318 0.095282,0.2014229 0.1316069,0.3059245 0.019897,0.010092 0.040097,0.019762 0.059946,0.029972 0.188254,0.096843 0.3800725,0.2008274 0.6139357,0.2868042 0.2350654,0.086419 0.515179,0.1534821 0.8206478,0.1555461 0.3223196,0.00218 0.6182948,-0.067931 0.8654356,-0.1596802 0.245748,-0.091232 0.4491311,-0.203395 0.6463206,-0.3059245 0.1908027,-0.099209 0.3820722,-0.1915702 0.5911972,-0.2645834 0.2085407,-0.072809 0.4377157,-0.1261074 0.669059,-0.1395264 0.2426677,-0.014076 0.4949319,0.015413 0.7062671,0.082166 0.2113358,0.066753 0.3846534,0.1725428 0.4837072,0.2945557 a 0.1689972,0.09245698 0 0 0 0.2246271,0.046509 0.1689972,0.09245698 0 0 0 0.084752,-0.1214396 C 9.3819146,3.7714103 9.1617569,3.6374477 8.8870828,3.5506879 8.6467421,3.4747731 8.3695122,3.4357883 8.0926187,3.4395836 Z M 2.0008062,3.500045 C 1.8914523,3.517922 1.7858111,3.542606 1.6866036,3.573942 1.4158111,3.659475 1.1996468,3.7912362 1.072668,3.9475626 A 0.1689972,0.09245698 0 0 0 1.15742,4.0690022 0.1689972,0.09245698 0 0 0 1.3820473,4.0230102 C 1.4793357,3.9032375 1.6486337,3.7991556 1.8561076,3.7336222 1.9668728,3.6986352 2.0890266,3.6744502 2.2150981,3.6612752 2.1492436,3.6035307 2.0776949,3.5495243 2.0008062,3.500045 Z m 6.0918125,0.7332886 c -0.039556,5.422e-4 -0.07909,0.00236 -0.1185145,0.00465 -0.2986685,0.017324 -0.5730084,0.082344 -0.8137575,0.1663981 -0.2401642,0.08385 -0.4480313,0.1861696 -0.6435644,0.2878377 -0.2019004,0.104979 -0.3916911,0.2089019 -0.6015329,0.2868043 -0.043756,0.016244 -0.088612,0.03119 -0.1343629,0.044958 0.065181,0.049465 0.1270213,0.10111 0.1860411,0.1545125 0.047203,-0.014737 0.093602,-0.030098 0.1378081,-0.046509 C 6.3504837,5.0407532 6.5538668,4.9285902 6.7510563,4.8260607 6.9418591,4.7268517 7.1331285,4.6344906 7.3422536,4.5614774 7.5507942,4.4886684 7.7799692,4.43537 8.0113125,4.421951 8.2539802,4.407875 8.5062444,4.437364 8.7175797,4.504117 8.9289155,4.57087 9.102233,4.6766598 9.2012868,4.7986727 A 0.1689972,0.09245698 0 0 0 9.425914,4.8451817 0.1689972,0.09245698 0 0 0 9.510666,4.7237421 C 9.3819146,4.5651602 9.1617569,4.4311977 8.8870828,4.3444379 8.6467421,4.2685232 8.3695122,4.2295383 8.0926187,4.2333336 Z M 2.4700433,4.2596886 C 2.197003,4.2557586 1.923547,4.2928506 1.6866036,4.3676923 1.4158111,4.4532263 1.1996468,4.5849864 1.072668,4.741313 A 0.1689972,0.09245698 0 0 0 1.15742,4.8627526 0.1689972,0.09245698 0 0 0 1.3820473,4.8167606 c 0.097288,-0.1197727 0.2665864,-0.2238545 0.4740603,-0.2893881 0.2074742,-0.065534 0.4549351,-0.094407 0.6931755,-0.080615 0.042335,0.00245 0.08468,0.0069 0.126784,0.011886 -0.00983,-0.065169 -0.024293,-0.1289692 -0.044788,-0.1912029 -0.014743,-0.00109 -0.029226,-0.00276 -0.044099,-0.00362 -0.038868,-0.00225 -0.078131,-0.00357 -0.1171371,-0.00413 z m 5.6225754,0.7673951 c -0.039556,5.42e-4 -0.07909,0.00236 -0.1185145,0.00465 -0.2986685,0.017324 -0.5730084,0.082344 -0.8137575,0.1663982 -0.2401642,0.08385 -0.4480313,0.1861696 -0.6435644,0.2878377 -0.064319,0.033443 -0.1272747,0.06628 -0.1901752,0.098702 0.043223,0.062585 0.083191,0.1268053 0.1185144,0.1927531 C 6.5516285,5.7250418 6.6522158,5.6712045 6.7510557,5.6198124 6.9418584,5.5206038 7.1331278,5.4282422 7.3422529,5.355229 7.5507935,5.2824199 7.7799686,5.2291216 8.0113118,5.2157026 c 0.2426678,-0.014076 0.4949319,0.015413 0.7062672,0.082166 0.2113358,0.066753 0.3846533,0.1725428 0.4837072,0.2945557 a 0.1689972,0.09245698 0 0 0 0.2246271,0.046509 0.1689972,0.09245698 0 0 0 0.084752,-0.1214396 C 9.3819146,5.3589104 9.1617569,5.2249478 8.8870828,5.138188 8.6467421,5.0622732 8.3695122,5.0232884 8.0926187,5.0270837 Z M 2.4700433,5.0534387 C 2.197003,5.0495087 1.923547,5.0866007 1.6866036,5.1614425 1.4158111,5.2469755 1.1996468,5.3787367 1.072668,5.5350631 A 0.1689972,0.09245698 0 0 0 1.15742,5.6565027 0.1689972,0.09245698 0 0 0 1.3820473,5.6105107 c 0.097288,-0.1197727 0.2665864,-0.2238546 0.4740603,-0.289388 0.2074742,-0.065534 0.4549351,-0.094407 0.6931755,-0.080615 0.2293914,0.01328 0.4571577,0.06546 0.6642355,0.1379761 0.207674,0.072726 0.4001852,0.1663213 0.5911973,0.2645834 0.188254,0.096843 0.3800725,0.2008274 0.6139357,0.2868042 0.2274543,0.083621 0.4970498,0.1490055 0.7910191,0.1550293 C 5.1765465,6.0180791 5.1374474,5.9538013 5.0925337,5.8921472 4.9259349,5.8748143 4.7600242,5.8327479 4.6081379,5.7769087 4.4088987,5.7036611 4.2260582,5.6069058 4.0341667,5.5081913 3.8392976,5.4079452 3.6338647,5.30592 3.3954255,5.2224206 3.1563901,5.1387124 2.8845267,5.0747866 2.5871803,5.0575727 c -0.038868,-0.00225 -0.07813,-0.00357 -0.1171371,-0.00413 z m 5.6225754,0.7673951 c -0.039556,5.422e-4 -0.07909,0.00236 -0.1185145,0.00465 -0.2986692,0.017325 -0.573009,0.082345 -0.8137582,0.1663989 -0.2008994,0.070141 -0.3783355,0.1534315 -0.5457204,0.2382284 0.01743,0.07682 0.030358,0.1552599 0.037208,0.2351278 0.033197,-0.017389 0.06653,-0.034678 0.099222,-0.051677 C 6.941858,6.3143529 7.1331274,6.2219918 7.3422525,6.1489786 7.5507931,6.0761696 7.7799682,6.0228712 8.0113114,6.0094522 c 0.2426678,-0.014076 0.4949319,0.015413 0.7062672,0.082166 0.2113358,0.066753 0.3846533,0.1725428 0.4837072,0.2945557 a 0.1689972,0.09245698 0 0 0 0.2246271,0.046509 0.1689972,0.09245698 0 0 0 0.084752,-0.1214396 C 9.3819146,6.1526603 9.1617569,6.0186978 8.8870828,5.931938 8.6467421,5.8560233 8.3695122,5.8170384 8.0926187,5.8208338 Z M 2.4700433,5.8471888 C 2.197003,5.8432588 1.923547,5.8803508 1.6866036,5.9551925 1.4158111,6.0407265 1.1996468,6.1724866 1.072668,6.3288132 A 0.1689972,0.09245698 0 0 0 1.15742,6.4502528 0.1689972,0.09245698 0 0 0 1.3820473,6.4042608 c 0.097288,-0.1197727 0.2665864,-0.2238545 0.4740603,-0.2893881 0.2074742,-0.065534 0.4549351,-0.094407 0.6931755,-0.080615 0.2293914,0.01328 0.4571577,0.065459 0.6642355,0.1379761 0.207674,0.072726 0.4001852,0.1663212 0.5911973,0.2645833 0.188254,0.096843 0.3800725,0.2008274 0.6139357,0.2868042 0.2350655,0.086419 0.5151791,0.1534821 0.8206479,0.1555461 0.022225,1.501e-4 0.044181,3.9e-6 0.066147,-5.168e-4 0.01396,-0.060678 0.02341,-0.1228591 0.027562,-0.1860351 -0.029577,0.00153 -0.059447,0.00227 -0.088887,0.00207 C 5.0278259,6.693221 4.8061742,6.6434644 4.6081379,6.5706588 4.4088987,6.4974112 4.2260582,6.4006558 4.0341667,6.3019413 3.8392976,6.2016952 3.6338647,6.09967 3.3954255,6.0161706 3.1563901,5.9324624 2.8845267,5.8685367 2.5871803,5.8513228 c -0.038868,-0.00225 -0.07813,-0.00357 -0.1171371,-0.00413 z m 5.6225754,0.7673951 c -0.039556,5.42e-4 -0.07909,0.00236 -0.1185145,0.00465 C 7.675435,6.6365589 7.4010952,6.7015783 7.160346,6.7856328 6.9589387,6.8559514 6.7810003,6.939358 6.6132474,7.0243779 6.5902217,7.1275573 6.5584096,7.228683 6.5188488,7.3272018 6.598137,7.2868634 6.6756068,7.2465424 6.7510557,7.2073125 6.9418584,7.1081039 7.1331278,7.0157423 7.3422529,6.9427291 7.5507935,6.86992 7.7799686,6.8166217 8.0113118,6.8032027 c 0.2426678,-0.014076 0.4949319,0.015413 0.7062672,0.082166 0.2113358,0.066753 0.3846533,0.1725428 0.4837072,0.2945557 a 0.1689972,0.09245698 0 0 0 0.2246271,0.046509 0.1689972,0.09245698 0 0 0 0.084752,-0.1214396 C 9.3819146,6.9464105 9.1617569,6.8124479 8.8870828,6.7256881 8.6467421,6.6497733 8.3695122,6.6107885 8.0926187,6.6145839 Z M 2.4700433,6.6409389 C 2.197003,6.6370089 1.923547,6.6741009 1.6866036,6.7489427 1.4158111,6.8344767 1.1996468,6.9662369 1.072668,7.1225633 A 0.1689972,0.09245698 0 0 0 1.15742,7.2440029 0.1689972,0.09245698 0 0 0 1.3820473,7.1980109 c 0.097288,-0.1197727 0.2665864,-0.2238546 0.4740603,-0.289388 0.2074742,-0.065534 0.4549351,-0.094407 0.6931755,-0.080615 0.2293914,0.01328 0.4571577,0.06546 0.6642355,0.1379761 0.207674,0.072726 0.4001852,0.1663213 0.5911973,0.2645834 0.188254,0.096843 0.3800725,0.2008274 0.6139357,0.2868042 0.1208172,0.044417 0.2535649,0.083628 0.3955095,0.1116211 C 4.8771577,7.577774 4.9356527,7.5233731 4.9884885,7.4656946 4.8573902,7.4441311 4.728317,7.4085913 4.6081379,7.3644088 4.4088987,7.2911612 4.2260582,7.1944059 4.0341667,7.0956914 3.8392976,6.9954453 3.6338647,6.8934201 3.3954255,6.8099207 3.1563901,6.7262125 2.8845267,6.6622867 2.5871803,6.6450728 c -0.038868,-0.00225 -0.07813,-0.00357 -0.1171371,-0.00413 z M 8.0926187,7.408334 c -0.039556,5.422e-4 -0.07909,0.00236 -0.1185145,0.00465 C 7.675435,7.430309 7.4010952,7.4953285 7.160346,7.5793828 6.9201818,7.6632329 6.7123147,7.7655524 6.5167817,7.8672205 6.3289614,7.9648785 6.1514099,8.0612388 5.9586584,8.1369715 5.8448349,8.2463423 5.7193066,8.3481822 5.583131,8.4418625 5.7725757,8.4139437 5.9486011,8.3649505 6.1047351,8.306987 6.350483,8.2157549 6.5538662,8.103592 6.7510557,8.0010625 6.9418584,7.9018539 7.1331278,7.8094924 7.3422529,7.7364792 7.5507935,7.6636699 7.7799686,7.6103718 8.0113118,7.5969528 c 0.2426678,-0.014076 0.4949319,0.015413 0.7062672,0.082165 0.2113358,0.066753 0.3846533,0.1725428 0.4837072,0.2945557 a 0.1689972,0.09245698 0 0 0 0.2246271,0.046509 0.1689972,0.09245698 0 0 0 0.084752,-0.1214396 C 9.3819146,7.7401604 9.1617569,7.6061979 8.8870828,7.5194381 8.6467421,7.4435234 8.3695122,7.4045385 8.0926187,7.408334 Z M 2.4700433,7.434689 C 2.197003,7.430759 1.923547,7.467851 1.6866036,7.5426927 1.4158111,7.6282257 1.1996468,7.7599868 1.072668,7.9163134 A 0.1689972,0.09245698 0 0 0 1.15742,8.037753 0.1689972,0.09245698 0 0 0 1.3820473,7.991761 c 0.097288,-0.1197727 0.2665864,-0.2238545 0.4740603,-0.2893881 0.2074742,-0.065534 0.4549351,-0.094407 0.6931755,-0.080615 0.2293914,0.01328 0.4571577,0.06546 0.6642355,0.1379761 0.207674,0.072726 0.4001852,0.1663212 0.5911973,0.2645833 0.019554,0.010059 0.039584,0.020304 0.059258,0.030489 0.1126702,-0.02186 0.2210293,-0.050921 0.3245383,-0.0863 C 4.1374247,7.9425167 4.0860746,7.9161443 4.0341667,7.8894414 3.8392976,7.7891953 3.6338647,7.6871701 3.3954255,7.6036707 3.1563901,7.5199625 2.8845267,7.4560368 2.5871803,7.4388229 c -0.038868,-0.00225 -0.07813,-0.00357 -0.1171371,-0.00413 z m 5.6225754,0.7673951 c -0.039556,5.42e-4 -0.07909,0.00236 -0.1185145,0.00465 C 7.675435,8.224059 7.4010952,8.2890784 7.160346,8.3731329 6.9201818,8.456983 6.7123147,8.5593025 6.5167817,8.6609706 6.3148812,8.7659496 6.1250905,8.8698726 5.9152487,8.9477748 5.7067998,9.0251598 5.4723397,9.077474 5.2441228,9.0759324 5.0278259,9.0744712 4.8061742,9.0247147 4.6081379,8.9519089 c -0.021386,-0.00786 -0.042352,-0.01591 -0.063391,-0.024288 -0.1132382,0.033074 -0.2291554,0.062124 -0.3479657,0.085783 0.070301,0.031871 0.1435915,0.062689 0.2218713,0.091467 C 4.6537176,9.1912899 4.9338312,9.258353 5.2393,9.260417 5.5616196,9.262597 5.8575948,9.192486 6.1047356,9.1007368 6.350483,9.009505 6.5538662,8.8973421 6.7510557,8.7948126 6.9418584,8.695604 7.1331278,8.6032424 7.3422529,8.5302292 7.5507935,8.4574201 7.7799686,8.4041218 8.0113118,8.3907028 c 0.2426678,-0.014076 0.4949319,0.015413 0.7062672,0.082166 0.2113358,0.066753 0.3846533,0.1725428 0.4837072,0.2945557 a 0.1689972,0.09245698 0 0 0 0.2246271,0.046509 0.1689972,0.09245698 0 0 0 0.084752,-0.1214396 C 9.3819146,8.5339106 9.1617569,8.399948 8.8870828,8.3131882 8.6467421,8.2372734 8.3695122,8.1982886 8.0926187,8.2020841 Z m 0,0.79375 c -0.039556,5.422e-4 -0.07909,0.00236 -0.1185145,0.00465 C 7.675435,9.0178091 7.4010952,9.0828286 7.160346,9.1668829 6.9201818,9.250733 6.7123147,9.3530525 6.5167817,9.4547206 6.3148812,9.5596996 6.1250905,9.6636225 5.9152487,9.7415249 5.7067998,9.8189099 5.4723397,9.871224 5.2441228,9.8696824 5.0278259,9.8682212 4.8061742,9.8184646 4.6081379,9.745659 4.4088987,9.6724114 4.2260582,9.575656 4.0341667,9.4769415 3.8392976,9.3766954 3.6338647,9.2746702 3.3954255,9.1911708 3.2911586,9.1546574 3.1801461,9.1223198 3.0639967,9.0955694 H 1.8099419 C 1.7679062,9.1060634 1.7267131,9.1175234 1.6866036,9.1301924 1.4158111,9.2157254 1.1996468,9.3474865 1.072668,9.5038131 A 0.1689972,0.09245698 0 0 0 1.15742,9.6252527 0.1689972,0.09245698 0 0 0 1.3820473,9.5792607 C 1.4793357,9.459488 1.6486337,9.3554062 1.8561076,9.2898726 c 0.2074742,-0.065534 0.4549351,-0.094407 0.6931755,-0.080615 0.2293914,0.01328 0.4571577,0.065459 0.6642355,0.1379761 0.207674,0.072726 0.4001852,0.1663212 0.5911973,0.2645833 0.188254,0.096843 0.3800725,0.2008274 0.6139357,0.2868042 0.2350655,0.086419 0.5151791,0.1534818 0.8206479,0.1555458 0.3223196,0.0022 0.6182947,-0.067931 0.8654356,-0.1596799 C 6.350483,9.803255 6.5538662,9.6910921 6.7510557,9.5885626 6.9418584,9.489354 7.1331278,9.3969925 7.3422529,9.3239793 7.5507935,9.25117 7.7799686,9.1978719 8.0113118,9.1844529 8.2539796,9.1703769 8.5062437,9.1998659 8.717579,9.2666189 8.9289148,9.3333719 9.1022323,9.4391617 9.2012862,9.5611746 A 0.1689972,0.09245698 0 0 0 9.4259133,9.6076836 0.1689972,0.09245698 0 0 0 9.5106653,9.486244 C 9.3819146,9.3276605 9.1617569,9.193698 8.8870828,9.1069382 8.6467421,9.0310235 8.3695122,8.9920386 8.0926187,8.9958341 Z" />
  </g>
</svg>
