<?xml version="1.0" encoding="UTF-8" standalone="no"?>
<!-- Created with Inkscape (http://www.inkscape.org/) -->

<svg
   width="40"
   height="40"
   viewBox="0 0 10.583334 10.583334"
   version="1.1"
   id="svg"
   inkscape:version="1.2.1 (9c6d41e410, 2022-07-14)"
   sodipodi:docname="741-"
   xmlns:inkscape="http://www.inkscape.org/namespaces/inkscape"
   xmlns:sodipodi="http://sodipodi.sourceforge.net/DTD/sodipodi-0.dtd"
   xmlns="http://www.w3.org/2000/svg"
   xmlns:svg="http://www.w3.org/2000/svg">
  <sodipodi:namedview
     id="namedview7"
     pagecolor="#505050"
     bordercolor="#ffffff"
     borderopacity="1"
     inkscape:pageshadow="0"
     inkscape:pageopacity="0"
     inkscape:pagecheckerboard="1"
     inkscape:document-units="px"
     showgrid="true"
     units="px"
     width="64px"
     inkscape:zoom="11.901796"
     inkscape:cx="17.350323"
     inkscape:cy="24.492102"
     inkscape:window-width="1660"
     inkscape:window-height="1002"
     inkscape:window-x="1930"
     inkscape:window-y="38"
     inkscape:window-maximized="1"
     inkscape:current-layer="layer1"
     guidecolor="#55ffff"
     guideopacity="1"
     inkscape:showpageshadow="0"
     inkscape:deskcolor="#505050"
     showguides="false">
    <inkscape:grid
       type="xygrid"
       id="grid869"
       color="#ffffff"
       opacity="0.13333333"
       empcolor="#ffffff"
       empopacity="0.53333333"
       spacingx="1.0583334"
       spacingy="1.0583334"
       empspacing="4"
       originx="0"
       originy="0" />
    <sodipodi:guide
       position="0,10.583334"
       orientation="0,40"
       id="guide134"
       inkscape:locked="false" />
    <sodipodi:guide
       position="10.583334,10.583334"
       orientation="40,0"
       id="guide136"
       inkscape:locked="false" />
    <sodipodi:guide
       position="10.583334,0"
       orientation="0,-40"
       id="guide138"
       inkscape:locked="false" />
    <sodipodi:guide
       position="0,0"
       orientation="-40,0"
       id="guide140"
       inkscape:locked="false" />
  </sodipodi:namedview>
  <defs
     id="defs2">
    <inkscape:path-effect
       effect="spiro"
       id="path-effect15567"
       is_visible="true"
       lpeversion="1" />
  </defs>
  <g
     inkscape:label="Layer 1"
     inkscape:groupmode="layer"
     id="layer1">
    <path
       id="rect2545"
       style="fill:#888888;fill-opacity:1;stroke:none;stroke-width:0.992184;stroke-linecap:round;stroke-linejoin:round;stroke-dasharray:none;stroke-opacity:1;paint-order:markers stroke fill"
       d="M 3.9687504,2.6458335 A 1.984375,1.984375 0 0 0 1.9843753,4.6302081 C 0.88503271,4.6302081 0,5.5152411 0,6.6145834 0,7.7139259 0.88503271,8.5989585 1.9843753,8.5989585 h 3.9687506 c 1.0993422,0 1.9843746,-0.8850326 1.9843746,-1.9843751 0,-1.0993423 -0.8850324,-1.9843753 -1.9843746,-1.9843753 A 1.984375,1.984375 0 0 0 3.9687504,2.6458335 Z" />
    <path
       id="path15565"
       style="color:#000000;fill:#888888;stroke-width:0.818277;stroke-linecap:round"
       d="M 9.5089809 1.0583334 C 9.4793147 1.0588756 9.4496652 1.0606974 9.4200974 1.0629843 C 9.1961031 1.0803086 8.9903548 1.1453281 8.8097987 1.2293824 C 8.6296813 1.3132325 8.4737859 1.415552 8.3271408 1.5172201 C 8.1757203 1.6221991 8.0333818 1.726122 7.8760055 1.8040244 C 7.7196738 1.8814094 7.5438343 1.9337235 7.3726771 1.9321819 C 7.2104596 1.9307207 7.0442261 1.8809641 6.8957036 1.8081585 C 6.746279 1.7349109 6.609153 1.6381555 6.4652389 1.539441 C 6.3190918 1.4391949 6.165022 1.3371697 5.9861983 1.2536703 C 5.8069275 1.1699621 5.6030364 1.1060364 5.3800337 1.0888225 C 5.1468299 1.0708212 4.9077106 1.1071587 4.7046227 1.1926921 C 4.5015348 1.2782256 4.3394168 1.4099862 4.2441857 1.5663128 A 0.12674386 0.09245698 0 0 0 4.3077477 1.6877524 A 0.12674386 0.09245698 0 0 0 4.4762128 1.6417604 C 4.5491771 1.5219877 4.6761462 1.4179059 4.8317467 1.3523723 C 4.9873474 1.2868385 5.1729371 1.2579651 5.3516117 1.2717571 C 5.5236498 1.2850371 5.6944691 1.3372166 5.8497725 1.4097332 C 6.005523 1.482459 6.1499018 1.5760544 6.2931563 1.6743165 C 6.4343423 1.7711593 6.5782016 1.8751439 6.7535934 1.9611207 C 6.9298869 2.0475395 7.1399654 2.1146032 7.3690597 2.1166668 C 7.6107917 2.1188441 7.832766 2.0487357 8.0181157 1.9569866 C 8.2024208 1.8657545 8.3549533 1.7535916 8.5028407 1.6510621 C 8.6459382 1.5518535 8.7893857 1.459492 8.9462245 1.3864788 C 9.102625 1.3136695 9.2745008 1.2603714 9.4480027 1.2469524 C 9.6299977 1.2328764 9.8191898 1.2623651 9.9776862 1.3291179 C 10.136183 1.3958709 10.266167 1.5016607 10.340455 1.6236736 A 0.12674386 0.09245698 0 0 0 10.50892 1.6701824 A 0.12674386 0.09245698 0 0 0 10.572482 1.5487428 C 10.475922 1.39016 10.310809 1.2561975 10.10481 1.1694377 C 9.9245602 1.093523 9.7166444 1.0545381 9.5089809 1.0583334 z M 9.5089809 1.8520835 C 9.4793147 1.8526255 9.4496652 1.8544475 9.4200974 1.8567343 C 9.1961031 1.8740586 8.9903548 1.939078 8.8097987 2.0231325 C 8.6296813 2.1069826 8.4737859 2.2093021 8.3271408 2.3109702 C 8.1757203 2.4159492 8.0333818 2.5198722 7.8760055 2.5977744 C 7.7196738 2.6751594 7.5438343 2.7274736 7.3726771 2.725932 C 7.2104596 2.7244708 7.0442261 2.6747143 6.8957036 2.6019085 C 6.746279 2.5286609 6.609153 2.4319056 6.4652389 2.3331911 C 6.3190918 2.232945 6.165022 2.1309198 5.9861983 2.0474204 C 5.8069275 1.9637122 5.6030364 1.8997864 5.3800337 1.8825725 C 5.1468299 1.8645714 4.9077106 1.9009088 4.7046227 1.9864422 C 4.5812154 2.038417 4.4731154 2.1077611 4.3857791 2.1890138 C 4.4744474 2.2054958 4.5610259 2.2271055 4.6451948 2.2536094 C 4.7004723 2.2117151 4.7631779 2.1750011 4.8317467 2.1461224 C 4.9873474 2.0805884 5.1729371 2.0517151 5.3516117 2.0655071 C 5.5236498 2.0787871 5.6944691 2.1309668 5.8497725 2.2034832 C 6.005523 2.276209 6.1499018 2.3698045 6.2931563 2.4680666 C 6.4343423 2.5649094 6.5782016 2.668894 6.7535934 2.7548708 C 6.9298869 2.8412896 7.1399654 2.9083533 7.3690597 2.9104169 C 7.6107917 2.912594 7.832766 2.8424858 8.0181157 2.7507367 C 8.2024208 2.6595046 8.3549533 2.5473417 8.5028407 2.4448122 C 8.6459382 2.3456036 8.7893857 2.253242 8.9462245 2.1802288 C 9.102625 2.1074197 9.2745008 2.0541214 9.4480027 2.0407024 C 9.6299977 2.0266266 9.8191898 2.056115 9.9776862 2.122868 C 10.136183 2.1896208 10.266167 2.2954108 10.340455 2.4174237 A 0.12674386 0.09245698 0 0 0 10.50892 2.4639324 A 0.12674386 0.09245698 0 0 0 10.572482 2.3424928 C 10.475922 2.1839102 10.310809 2.0499476 10.10481 1.9631878 C 9.9245602 1.887273 9.7166444 1.8482882 9.5089809 1.8520835 z M 9.5089809 2.6458335 C 9.4793147 2.6463757 9.4496652 2.6481975 9.4200974 2.6504844 C 9.1961031 2.6678087 8.9903548 2.7328282 8.8097987 2.8168825 C 8.6296813 2.9007326 8.4737859 3.0030521 8.3271408 3.1047202 C 8.1757203 3.2096992 8.0333818 3.3136221 7.8760055 3.3915245 C 7.7196738 3.4689095 7.5438343 3.5212236 7.3726771 3.519682 C 7.2104596 3.5182208 7.0442261 3.4684642 6.8957036 3.3956586 C 6.746279 3.322411 6.609153 3.2256556 6.4652389 3.1269411 C 6.3190918 3.026695 6.165022 2.9246698 5.9861983 2.8411704 C 5.8170166 2.7621732 5.6256465 2.7015832 5.4172407 2.6804567 C 5.5067431 2.7558464 5.5913422 2.837296 5.6694217 2.925403 C 5.7312703 2.945898 5.7915337 2.9700396 5.8497725 2.9972333 C 6.005523 3.0699591 6.1499018 3.1635545 6.2931563 3.2618166 C 6.4343423 3.3586594 6.5782016 3.462644 6.7535934 3.5486208 C 6.9298869 3.6350396 7.1399654 3.7021029 7.3690597 3.7041669 C 7.6107917 3.7063439 7.832766 3.6362358 8.0181157 3.5444867 C 8.2024208 3.4532546 8.3549533 3.3410917 8.5028407 3.2385622 C 8.6459382 3.1393536 8.7893857 3.0469921 8.9462245 2.9739789 C 9.102625 2.9011696 9.2745008 2.8478715 9.4480027 2.8344525 C 9.6299977 2.8203765 9.8191898 2.8498652 9.9776862 2.916618 C 10.136183 2.983371 10.266167 3.0891608 10.340455 3.2111737 A 0.12674386 0.09245698 0 0 0 10.50892 3.2576825 A 0.12674386 0.09245698 0 0 0 10.572482 3.1362429 C 10.475922 2.9776601 10.310809 2.8436976 10.10481 2.7569378 C 9.9245602 2.6810231 9.7166444 2.6420382 9.5089809 2.6458335 z M 4.2400515 3.1672487 A 0.12674386 0.09245698 0 0 0 4.3077477 3.2752525 A 0.12674386 0.09245698 0 0 0 4.4756961 3.2297772 C 4.3999632 3.20273 4.3210849 3.1819134 4.2400515 3.1672487 z M 9.5089809 3.4395836 C 9.4793147 3.4401256 9.4496652 3.4419476 9.4200974 3.4442344 C 9.1961031 3.4615587 8.9903548 3.5265781 8.8097987 3.6106326 C 8.6296813 3.6944827 8.4737859 3.7968022 8.3271408 3.8984703 C 8.1757203 4.0034493 8.0333818 4.1073723 7.8760055 4.1852745 C 7.7196738 4.2626595 7.5438343 4.3149737 7.3726771 4.3134321 C 7.2104596 4.3119709 7.0442261 4.2622144 6.8957036 4.1894086 C 6.746279 4.116161 6.609153 4.0194057 6.4652389 3.9206912 C 6.3655348 3.8523016 6.2619187 3.7832683 6.1494958 3.7196698 C 6.1880493 3.8189877 6.2209547 3.9210927 6.2481978 4.0255943 C 6.2631197 4.0356861 6.2782702 4.0453559 6.2931563 4.0555667 C 6.4343423 4.1524095 6.5782016 4.2563941 6.7535934 4.3423709 C 6.9298869 4.4287897 7.1399654 4.495853 7.3690597 4.497917 C 7.6107917 4.5000938 7.832766 4.4299859 8.0181157 4.3382368 C 8.2024208 4.2470047 8.3549533 4.1348418 8.5028407 4.0323123 C 8.6459382 3.9331037 8.7893857 3.8407421 8.9462245 3.7677289 C 9.102625 3.6949198 9.2745008 3.6416215 9.4480027 3.6282025 C 9.6299977 3.6141267 9.8191898 3.6436151 9.9776862 3.7103681 C 10.136183 3.7771209 10.266167 3.8829109 10.340455 4.0049238 A 0.12674386 0.09245698 0 0 0 10.50892 4.0514325 A 0.12674386 0.09245698 0 0 0 10.572482 3.9299929 C 10.475922 3.7714103 10.310809 3.6374477 10.10481 3.5506879 C 9.9245602 3.4747731 9.7166444 3.4357883 9.5089809 3.4395836 z M 4.9402672 3.500045 C 4.8582544 3.517922 4.779026 3.5426062 4.7046227 3.5739423 C 4.5015348 3.6594758 4.3394168 3.7912365 4.2441857 3.9475629 A 0.12674386 0.09245698 0 0 0 4.3077477 4.0690025 A 0.12674386 0.09245698 0 0 0 4.4762128 4.0230105 C 4.5491768 3.9032378 4.6761462 3.7991559 4.8317467 3.7336225 C 4.9148179 3.6986356 5.0064304 3.6744505 5.100981 3.6612755 C 5.0515917 3.6035307 4.9979319 3.5495243 4.9402672 3.500045 z M 9.5089809 4.2333336 C 9.4793147 4.2338758 9.4496652 4.2356976 9.4200974 4.2379845 C 9.1961031 4.2553088 8.9903548 4.3203283 8.8097987 4.4043826 C 8.6296813 4.4882327 8.4737859 4.5905522 8.3271408 4.6922203 C 8.1757203 4.7971993 8.0333818 4.9011222 7.8760055 4.9790246 C 7.8431892 4.9952688 7.8095483 5.0102145 7.7752365 5.0239831 C 7.8241208 5.0734477 7.8704991 5.1250931 7.9147629 5.1784956 C 7.9501636 5.163759 7.9849621 5.1483981 8.0181157 5.1319868 C 8.2024208 5.0407547 8.3549533 4.9285918 8.5028407 4.8260623 C 8.6459382 4.7268537 8.7893857 4.6344922 8.9462245 4.561479 C 9.102625 4.4886697 9.2745008 4.4353716 9.4480027 4.4219526 C 9.6299977 4.4078766 9.8191898 4.4373653 9.9776862 4.5041181 C 10.136183 4.5708711 10.266167 4.6766609 10.340455 4.7986738 A 0.12674386 0.09245698 0 0 0 10.50892 4.8451826 A 0.12674386 0.09245698 0 0 0 10.572482 4.723743 C 10.475922 4.5651602 10.310809 4.4311977 10.10481 4.3444379 C 9.9245602 4.2685232 9.7166444 4.2295383 9.5089809 4.2333336 z M 5.2921838 4.2596886 C 5.0874101 4.2557537 4.8823246 4.2928506 4.7046227 4.3676923 C 4.5015348 4.4532258 4.3394168 4.5849864 4.2441857 4.741313 A 0.12674386 0.09245698 0 0 0 4.3077477 4.8627526 A 0.12674386 0.09245698 0 0 0 4.4762128 4.8167606 C 4.5491768 4.6969879 4.6761462 4.5929061 4.8317467 4.5273725 C 4.9873474 4.4618387 5.1729371 4.4329653 5.3516117 4.4467573 C 5.3833617 4.4492081 5.4151192 4.4536589 5.4466963 4.4586429 C 5.439328 4.3934737 5.4284775 4.3296737 5.4131066 4.26744 C 5.4020491 4.2663487 5.3911875 4.2646837 5.3800337 4.2638227 C 5.3508832 4.2615725 5.3214372 4.2602507 5.2921838 4.2596886 z M 9.5089809 5.0270837 C 9.4793147 5.0276257 9.4496652 5.0294477 9.4200974 5.0317345 C 9.1961031 5.0490588 8.9903548 5.1140782 8.8097987 5.1981327 C 8.6296813 5.2819828 8.4737859 5.3843023 8.3271408 5.4859704 C 8.2789029 5.5194135 8.2316882 5.5522508 8.1845139 5.5846724 C 8.2169303 5.6472571 8.2469048 5.7114777 8.2733973 5.7774255 C 8.3532751 5.7250418 8.4287132 5.6712045 8.5028407 5.6198124 C 8.6459382 5.5206038 8.7893857 5.4282422 8.9462245 5.355229 C 9.102625 5.2824199 9.2745008 5.2291216 9.4480027 5.2157026 C 9.6299977 5.2016268 9.8191898 5.2311152 9.9776862 5.2978682 C 10.136183 5.364621 10.266167 5.470411 10.340455 5.5924239 A 0.12674386 0.09245698 0 0 0 10.50892 5.6389326 A 0.12674386 0.09245698 0 0 0 10.572482 5.517493 C 10.475922 5.3589104 10.310809 5.2249478 10.10481 5.138188 C 9.9245602 5.0622732 9.7166444 5.0232884 9.5089809 5.0270837 z M 5.2921838 5.0534386 C 5.0874101 5.0495038 4.8823246 5.0866006 4.7046227 5.1614424 C 4.5015348 5.2469759 4.3394168 5.3787366 4.2441857 5.535063 A 0.12674386 0.09245698 0 0 0 4.3077477 5.6565026 A 0.12674386 0.09245698 0 0 0 4.4762128 5.6105106 C 4.5491768 5.4907379 4.6761462 5.386656 4.8317467 5.3211226 C 4.9873474 5.2555886 5.1729371 5.2267153 5.3516117 5.2405073 C 5.5236498 5.2537873 5.6944691 5.305967 5.8497725 5.3784834 C 6.005523 5.4512092 6.1499018 5.5448047 6.2931563 5.6430668 C 6.4343423 5.7399096 6.5782016 5.8438942 6.7535934 5.929871 C 6.9241787 6.0134916 7.1263689 6.0788765 7.3468388 6.0849003 C 7.3219965 6.0180791 7.2926731 5.9538013 7.2589889 5.8921472 C 7.1340438 5.8748143 7.0096147 5.8327479 6.8957036 5.7769087 C 6.746279 5.7036611 6.609153 5.6069058 6.4652389 5.5081913 C 6.3190918 5.4079452 6.165022 5.30592 5.9861983 5.2224206 C 5.8069275 5.1387124 5.6030364 5.0747866 5.3800337 5.0575727 C 5.3508832 5.0553226 5.3214372 5.0540007 5.2921838 5.0534386 z M 9.5089809 5.8208337 C 9.4793147 5.8213759 9.4496652 5.8231977 9.4200974 5.8254846 C 9.1961031 5.8428089 8.9903548 5.9078284 8.8097987 5.9918827 C 8.6591289 6.0620241 8.5260561 6.1453142 8.4005214 6.2301111 C 8.4135937 6.3069315 8.4232896 6.385371 8.4284266 6.4652389 C 8.4533237 6.4478503 8.4783226 6.4305607 8.5028407 6.4135624 C 8.6459382 6.3143538 8.7893857 6.2219923 8.9462245 6.1489791 C 9.102625 6.0761698 9.2745008 6.0228717 9.4480027 6.0094527 C 9.6299977 5.9953767 9.8191898 6.0248654 9.9776862 6.0916182 C 10.136183 6.1583712 10.266167 6.264161 10.340455 6.3861739 A 0.12674386 0.09245698 0 0 0 10.50892 6.4326827 A 0.12674386 0.09245698 0 0 0 10.572482 6.3112431 C 10.475922 6.1526603 10.310809 6.0186978 10.10481 5.931938 C 9.9245602 5.8560233 9.7166444 5.8170384 9.5089809 5.8208337 z M 5.2921838 5.8471887 C 5.0874101 5.8432538 4.8823246 5.8803507 4.7046227 5.9551924 C 4.5015348 6.0407259 4.3394168 6.1724865 4.2441857 6.3288131 A 0.12674386 0.09245698 0 0 0 4.3077477 6.4502527 A 0.12674386 0.09245698 0 0 0 4.4762128 6.4042607 C 4.5491768 6.284488 4.6761462 6.1804062 4.8317467 6.1148726 C 4.9873474 6.0493388 5.1729371 6.0204654 5.3516117 6.0342574 C 5.5236498 6.0475374 5.6944691 6.0997169 5.8497725 6.1722335 C 6.005523 6.2449593 6.1499018 6.3385547 6.2931563 6.4368168 C 6.4343423 6.5336596 6.5782016 6.6376442 6.7535934 6.723621 C 6.9298869 6.8100398 7.1399654 6.8771031 7.3690597 6.8791671 C 7.3857276 6.8793172 7.4021946 6.879171 7.4186691 6.8786503 C 7.4291386 6.8179719 7.4362264 6.7557912 7.4393397 6.6926152 C 7.4171574 6.6941468 7.3947555 6.6948811 7.3726771 6.6946822 C 7.2104596 6.693221 7.0442261 6.6434644 6.8957036 6.5706588 C 6.746279 6.4974112 6.609153 6.4006558 6.4652389 6.3019413 C 6.3190918 6.2016952 6.165022 6.09967 5.9861983 6.0161706 C 5.8069275 5.9324624 5.6030364 5.8685367 5.3800337 5.8513228 C 5.3508832 5.8490726 5.3214372 5.8477508 5.2921838 5.8471887 z M 9.5089809 6.6145838 C 9.4793147 6.6151258 9.4496652 6.6169478 9.4200974 6.6192346 C 9.1961031 6.6365589 8.9903548 6.7015783 8.8097987 6.7856328 C 8.658748 6.8559514 8.5252985 6.939358 8.3994878 7.0243779 C 8.3822191 7.1275573 8.3583608 7.228683 8.3286911 7.3272018 C 8.3881554 7.2868634 8.4462559 7.2465424 8.5028407 7.2073125 C 8.6459382 7.1081039 8.7893857 7.0157423 8.9462245 6.9427291 C 9.102625 6.86992 9.2745008 6.8166217 9.4480027 6.8032027 C 9.6299977 6.7891269 9.8191898 6.8186153 9.9776862 6.8853683 C 10.136183 6.9521211 10.266167 7.0579111 10.340455 7.179924 A 0.12674386 0.09245698 0 0 0 10.50892 7.2264327 A 0.12674386 0.09245698 0 0 0 10.572482 7.1049931 C 10.475922 6.9464105 10.310809 6.8124479 10.10481 6.7256881 C 9.9245602 6.6497733 9.7166444 6.6107885 9.5089809 6.6145838 z M 5.2921838 6.6409387 C 5.0874101 6.6370039 4.8823246 6.6741007 4.7046227 6.7489425 C 4.5015348 6.834476 4.3394168 6.9662367 4.2441857 7.1225631 A 0.12674386 0.09245698 0 0 0 4.3077477 7.2440027 A 0.12674386 0.09245698 0 0 0 4.4762128 7.1980107 C 4.5491768 7.078238 4.6761462 6.9741561 4.8317467 6.9086227 C 4.9873474 6.8430887 5.1729371 6.8142154 5.3516117 6.8280074 C 5.5236498 6.8412874 5.6944691 6.8934671 5.8497725 6.9659835 C 6.005523 7.0387093 6.1499018 7.1323048 6.2931563 7.2305669 C 6.4343423 7.3274097 6.5782016 7.4313943 6.7535934 7.5173711 C 6.8442039 7.5617882 6.943761 7.6009988 7.0502161 7.6289922 C 7.097462 7.577774 7.1413319 7.5233731 7.1809575 7.4656946 C 7.0826369 7.4441311 6.9858351 7.4085913 6.8957036 7.3644088 C 6.746279 7.2911612 6.609153 7.1944059 6.4652389 7.0956914 C 6.3190918 6.9954453 6.165022 6.8934201 5.9861983 6.8099207 C 5.8069275 6.7262125 5.6030364 6.6622867 5.3800337 6.6450728 C 5.3508832 6.6428227 5.3214372 6.6415008 5.2921838 6.6409387 z M 9.5089809 7.4083338 C 9.4793147 7.408876 9.4496652 7.4106978 9.4200974 7.4129847 C 9.1961031 7.430309 8.9903548 7.4953285 8.8097987 7.5793828 C 8.6296813 7.6632329 8.4737859 7.7655524 8.3271408 7.8672205 C 8.1862801 7.9648785 8.0531207 8.0612388 7.9085617 8.1369715 C 7.8231968 8.2463423 7.7290536 8.3481822 7.6269251 8.4418625 C 7.7690041 8.4139437 7.901019 8.3649505 8.0181157 8.306987 C 8.2024208 8.2157549 8.3549533 8.103592 8.5028407 8.0010625 C 8.6459382 7.9018539 8.7893857 7.8094924 8.9462245 7.7364792 C 9.102625 7.6636699 9.2745008 7.6103718 9.4480027 7.5969528 C 9.6299977 7.5828768 9.8191898 7.6123655 9.9776862 7.6791183 C 10.136183 7.7458713 10.266167 7.8516611 10.340455 7.973674 A 0.12674386 0.09245698 0 0 0 10.50892 8.0201828 A 0.12674386 0.09245698 0 0 0 10.572482 7.8987432 C 10.475922 7.7401604 10.310809 7.6061979 10.10481 7.5194381 C 9.9245602 7.4435234 9.7166444 7.4045385 9.5089809 7.4083338 z M 5.2921838 7.4346888 C 5.0874101 7.4307539 4.8823246 7.4678508 4.7046227 7.5426925 C 4.5015348 7.628226 4.3394168 7.7599866 4.2441857 7.9163132 A 0.12674386 0.09245698 0 0 0 4.3077477 8.0377528 A 0.12674386 0.09245698 0 0 0 4.4762128 7.9917608 C 4.5491768 7.8719881 4.6761462 7.7679063 4.8317467 7.7023727 C 4.9873474 7.6368389 5.1729371 7.6079655 5.3516117 7.6217575 C 5.5236498 7.6350375 5.6944691 7.687217 5.8497725 7.7597336 C 6.005523 7.8324594 6.1499018 7.9260548 6.2931563 8.0243169 C 6.3078209 8.0343757 6.3228434 8.0446213 6.3375981 8.054806 C 6.4220979 8.0329462 6.5033648 8.0038846 6.5809941 7.9685064 C 6.54268 7.9425167 6.5041686 7.9161443 6.4652389 7.8894414 C 6.3190918 7.7891953 6.165022 7.6871701 5.9861983 7.6036707 C 5.8069275 7.5199625 5.6030364 7.4560368 5.3800337 7.4388229 C 5.3508832 7.4365727 5.3214372 7.4352509 5.2921838 7.4346888 z M 9.5089809 8.2020839 C 9.4793147 8.2026259 9.4496652 8.2044479 9.4200974 8.2067347 C 9.1961031 8.224059 8.9903548 8.2890784 8.8097987 8.3731329 C 8.6296813 8.456983 8.4737859 8.5593025 8.3271408 8.6609706 C 8.1757203 8.7659496 8.0333818 8.8698726 7.8760055 8.9477748 C 7.7196738 9.0251598 7.5438343 9.077474 7.3726771 9.0759324 C 7.2104596 9.0744712 7.0442261 9.0247147 6.8957036 8.9519089 C 6.8796645 8.9440466 6.8639405 8.9359984 6.8481612 8.927621 C 6.7632353 8.9606953 6.6763001 8.9897454 6.5871952 9.0134039 C 6.6399196 9.0452744 6.6948854 9.0760926 6.7535934 9.1048712 C 6.9298869 9.19129 7.1399654 9.2583533 7.3690597 9.2604173 C 7.6107917 9.2625941 7.832766 9.1924862 8.0181157 9.1007371 C 8.2024208 9.009505 8.3549533 8.8973421 8.5028407 8.7948126 C 8.6459382 8.695604 8.7893857 8.6032424 8.9462245 8.5302292 C 9.102625 8.4574201 9.2745008 8.4041218 9.4480027 8.3907028 C 9.6299977 8.376627 9.8191898 8.4061154 9.9776862 8.4728684 C 10.136183 8.5396212 10.266167 8.6454112 10.340455 8.7674241 A 0.12674386 0.09245698 0 0 0 10.50892 8.8139328 A 0.12674386 0.09245698 0 0 0 10.572482 8.6924932 C 10.475922 8.5339106 10.310809 8.399948 10.10481 8.3131882 C 9.9245602 8.2372734 9.7166444 8.1982886 9.5089809 8.2020839 z M 9.5089809 8.9958339 C 9.4793147 8.9963761 9.4496652 8.9981979 9.4200974 9.0004848 C 9.1961031 9.0178091 8.9903548 9.0828286 8.8097987 9.1668829 C 8.6296813 9.250733 8.4737859 9.3530525 8.3271408 9.4547206 C 8.1757203 9.5596996 8.0333818 9.6636225 7.8760055 9.7415249 C 7.7196738 9.8189099 7.5438343 9.871224 7.3726771 9.8696824 C 7.2104596 9.8682212 7.0442261 9.8184646 6.8957036 9.745659 C 6.746279 9.6724114 6.609153 9.575656 6.4652389 9.4769415 C 6.3190918 9.3766954 6.165022 9.2746702 5.9861983 9.1911708 C 5.9080006 9.1546574 5.8247439 9.1223198 5.7376346 9.0955694 L 4.7971235 9.0955694 C 4.7655977 9.1060632 4.7347039 9.1175235 4.7046227 9.1301926 C 4.5015348 9.2157261 4.3394168 9.3474867 4.2441857 9.5038133 A 0.12674386 0.09245698 0 0 0 4.3077477 9.6252529 A 0.12674386 0.09245698 0 0 0 4.4762128 9.5792609 C 4.5491768 9.4594882 4.6761462 9.3554064 4.8317467 9.2898728 C 4.9873474 9.224339 5.1729371 9.1954656 5.3516117 9.2092576 C 5.5236498 9.2225376 5.6944691 9.2747171 5.8497725 9.3472337 C 6.005523 9.4199595 6.1499018 9.5135549 6.2931563 9.611817 C 6.4343423 9.7086598 6.5782016 9.8126444 6.7535934 9.8986212 C 6.9298869 9.98504 7.1399654 10.052103 7.3690597 10.054167 C 7.6107917 10.056344 7.832766 9.9862362 8.0181157 9.8944871 C 8.2024208 9.803255 8.3549533 9.6910921 8.5028407 9.5885626 C 8.6459382 9.489354 8.7893857 9.3969925 8.9462245 9.3239793 C 9.102625 9.25117 9.2745008 9.1978719 9.4480027 9.1844529 C 9.6299977 9.1703769 9.8191898 9.1998656 9.9776862 9.2666184 C 10.136183 9.3333714 10.266167 9.4391612 10.340455 9.5611741 A 0.12674386 0.09245698 0 0 0 10.50892 9.6076829 A 0.12674386 0.09245698 0 0 0 10.572482 9.4862433 C 10.475922 9.3276605 10.310809 9.193698 10.10481 9.1069382 C 9.9245602 9.0310235 9.7166444 8.9920386 9.5089809 8.9958339 z " />
  </g>
</svg>
