<?xml version="1.0" encoding="UTF-8" standalone="no"?>
<!-- Created with Inkscape (http://www.inkscape.org/) -->

<svg
   width="40"
   height="40"
   viewBox="0 0 10.583334 10.583334"
   version="1.1"
   id="svg"
   xmlns="http://www.w3.org/2000/svg"
   xmlns:svg="http://www.w3.org/2000/svg">
  <defs
     id="defs2" />
  <g
     id="layer1">
    <path
       id="rect2545"
       style="fill:#888888;fill-opacity:1;stroke:none;stroke-width:0.992184;stroke-linecap:round;stroke-linejoin:round;stroke-dasharray:none;stroke-opacity:1;paint-order:markers stroke fill"
       d="M 3.9687504,2.6458335 A 1.984375,1.984375 0 0 0 1.9843753,4.6302081 C 0.88503271,4.6302081 0,5.5152411 0,6.6145834 0,7.7139259 0.88503271,8.5989585 1.9843753,8.5989585 h 3.9687506 c 1.0993422,0 1.9843746,-0.8850326 1.9843746,-1.9843751 0,-1.0993423 -0.8850324,-1.9843753 -1.9843746,-1.9843753 A 1.984375,1.984375 0 0 0 3.9687504,2.6458335 Z" />
    <path
       id="rect2545-9"
       style="fill:#888888;fill-opacity:1;stroke:none;stroke-width:0.661456;stroke-linecap:round;stroke-linejoin:round;stroke-dasharray:none;stroke-opacity:1;paint-order:markers stroke fill"
       d="M 7.9375006,0 A 1.3229167,1.3229167 0 0 0 6.6145839,1.3229164 c -0.7328951,0 -1.3229169,0.5900225 -1.3229169,1.3229176 0,0.7328948 0.5900218,1.3229161 1.3229169,1.3229161 h 2.6458337 c 0.7328948,0 1.3229164,-0.5900213 1.3229164,-1.3229161 0,-0.7328951 -0.5900216,-1.3229176 -1.3229164,-1.3229176 A 1.3229167,1.3229167 0 0 0 7.9375006,0 Z" />
    <path
       id="rect2545-9-3"
       style="fill:#888888;fill-opacity:1;stroke:none;stroke-width:0.529165;stroke-linecap:round;stroke-linejoin:round;stroke-dasharray:none;stroke-opacity:1;paint-order:markers stroke fill"
       d="M 8.4666674,7.4083338 A 1.0583334,1.0583334 0 0 0 7.4083339,8.466667 c -0.586316,0 -1.0583335,0.472018 -1.0583335,1.058334 0,0.586316 0.4720175,1.058333 1.0583335,1.058333 H 9.525001 c 0.586316,0 1.058333,-0.472017 1.058333,-1.058333 0,-0.586316 -0.472017,-1.058334 -1.058333,-1.058334 A 1.0583334,1.0583334 0 0 0 8.4666674,7.4083338 Z" />
  </g>
</svg>
