<?xml version="1.0" encoding="UTF-8"?>
<!-- Created with Inkscape (http://www.inkscape.org/) -->
<svg id="svg" width="40" height="40" version="1.1" viewBox="0 0 10.583 10.583" xmlns="http://www.w3.org/2000/svg">
 <g fill="#888">
  <path d="m3.9688 2.6458a1.9844 1.9844 0 0 0-1.9844 1.9844c-1.0993 0-1.9844 0.88503-1.9844 1.9844 0 1.0993 0.88503 1.9844 1.9844 1.9844h3.9688c1.0993 0 1.9844-0.88503 1.9844-1.9844 0-1.0993-0.88503-1.9844-1.9844-1.9844a1.9844 1.9844 0 0 0-1.9844-1.9844z" style="paint-order:markers stroke fill"/>
  <path d="m7.9375 0a1.3229 1.3229 0 0 0-1.3229 1.3229c-0.7329 0-1.3229 0.59002-1.3229 1.3229 0 0.73289 0.59002 1.3229 1.3229 1.3229h2.6458c0.73289 0 1.3229-0.59002 1.3229-1.3229 0-0.7329-0.59002-1.3229-1.3229-1.3229a1.3229 1.3229 0 0 0-1.3229-1.3229z" style="paint-order:markers stroke fill"/>
  <path d="m8.4667 7.4083a1.0583 1.0583 0 0 0-1.0583 1.0583c-0.58632 0-1.0583 0.47202-1.0583 1.0583s0.47202 1.0583 1.0583 1.0583h2.1167c0.58632 0 1.0583-0.47202 1.0583-1.0583s-0.47202-1.0583-1.0583-1.0583a1.0583 1.0583 0 0 0-1.0583-1.0583z" style="paint-order:markers stroke fill"/>
 </g>
</svg>
